<svg id="Capa_1" enable-background="new 0 0 512 512" height="512" viewBox="0 0 512 512" width="512" xmlns="http://www.w3.org/2000/svg"><g><g><path d="m150 256c0-8.284-6.716-15-15-15s-15 6.716-15 15v34.859h-30v-34.859c0-8.284-6.716-15-15-15s-15 6.716-15 15v34.859h-30v-34.859c0-8.284-6.716-15-15-15s-15 6.716-15 15v256h150.168zm-60 110.246c0 8.284-6.716 15-15 15s-15-6.716-15-15v-13.864c0-8.284 6.716-15 15-15s15 6.716 15 15z"/><path d="m497 241c-8.284 0-15 6.716-15 15v34.859h-30v-34.859c0-8.284-6.716-15-15-15s-15 6.716-15 15v34.859h-30v-34.859c0-8.284-6.716-15-15-15s-15 6.716-15 15l-.133 256h150.133v-256c0-8.284-6.716-15-15-15zm-45 125.246c0 8.284-6.716 15-15 15s-15-6.716-15-15v-13.864c0-8.284 6.716-15 15-15s15 6.716 15 15z"/></g><g><g><path d="m319.602 178.234-48.602-84.19v-64.044h20.382c-1.351 2.252-2.142 4.878-2.142 7.695 0 8.284 6.716 15 15 15h48.104c8.284 0 15-6.716 15-15s-6.716-15-15-15h-23.61c1.351-2.252 2.142-4.878 2.142-7.695 0-8.284-6.716-15-15-15h-59.876c-8.284 0-15 6.716-15 15v79.044l-48.602 84.191h127.204z"/><path d="m319.668 208.234h-127.336v109.524h127.336zm-48.668 63.92c0 8.284-6.716 15-15 15s-15-6.716-15-15v-13.864c0-8.284 6.716-15 15-15s15 6.716 15 15z"/></g><g><path d="m256 451.962c-8.281 0-15.019 6.737-15.019 15.019v45.019h30.037v-45.019c.001-8.281-6.737-15.019-15.018-15.019z"/><path d="m180.168 347.759v164.241h30.814v-45.019c0-24.823 20.195-45.019 45.019-45.019 24.823 0 45.019 20.195 45.019 45.019v45.019h30.849v-164.241z"/></g></g></g></svg>