<svg id="Capa_1" enable-background="new 0 0 512 512" height="512" viewBox="0 0 512 512" width="512" xmlns="http://www.w3.org/2000/svg"><g><path d="m256 233.29c-8.284 0-15 6.716-15 15v13.864c0 8.284 6.716 15 15 15s15-6.716 15-15v-13.864c0-8.284-6.716-15-15-15z"/><path d="m60 352.382v13.864c0 8.284 6.716 15 15 15s15-6.716 15-15v-13.864c0-8.284-6.716-15-15-15s-15 6.716-15 15z"/><path d="m422 352.382v13.864c0 8.284 6.716 15 15 15s15-6.716 15-15v-13.864c0-8.284-6.716-15-15-15s-15 6.716-15 15z"/><path d="m497 241c-8.284 0-15 6.716-15 15v17.816h-30v-17.816c0-8.284-6.716-15-15-15s-15 6.716-15 15v17.816h-30v-17.816c0-8.284-6.716-15-15-15s-15 6.716-15 15v32.816 38.565h-31.125v-142.654c0-2.615-.703-5.236-2.009-7.502l-57.866-100.238v-46.987h20.382c-1.351 2.252-2.142 4.878-2.142 7.695 0 8.284 6.716 15 15 15h48.104c8.284 0 15-6.716 15-15s-6.716-15-15-15h-23.61c1.351-2.252 2.142-4.878 2.142-7.695 0-8.284-6.716-15-15-15h-59.876c-8.284 0-15 6.716-15 15v61.987l-57.067 98.855c-1.835 2.489-2.933 5.554-2.933 8.883v142.657h-31v-38.565-32.817c0-8.284-6.716-15-15-15s-15 6.716-15 15v17.816h-30v-17.816c0-8.284-6.716-15-15-15s-15 6.716-15 15v17.816h-30v-17.816c0-8.284-6.716-15-15-15s-15 6.716-15 15v241c0 8.284 6.716 15 15 15h482c8.284 0 15-6.716 15-15v-241c0-8.284-6.716-15-15-15zm-241-129.992 33.895 58.716h-67.791zm-45 88.717h89.875v127.657h-89.875zm151 157.657v124.618h-60.981v-15.019c0-24.823-20.195-45.019-45.019-45.019-24.823 0-45.019 20.195-45.019 45.019v15.019h-60.981v-124.618zm-90.981 124.618h-30.037v-15.019c0-8.281 6.737-15.019 15.019-15.019 8.281 0 15.019 6.737 15.019 15.019v15.019zm-151.019 0h-90v-178.184h90zm362 0h-90v-178.184h90z"/></g></svg>